<svg xmlns="http://www.w3.org/2000/svg" viewBox="0 0 49.38 141.87"><defs><style>.cls-1{fill:#323232;}</style></defs><title>Asset 10</title><g id="Layer_2" data-name="Layer 2"><g id="Layer_1-2" data-name="Layer 1"><path class="cls-1" d="M49.38,15c0-10.25-7.75-14-10-14.5,0,0-7-2.12-11.37,2.63C23.63-1.65,16.63.47,16.63.47c-2.25.5-10,4.25-10,14.5s8.5,16,13,20.5c-3,4,3,6,3,6H24v70.07H18.17c-1,0-.5,1.33-2.17,1.33s-5.16,1.33-6.16,3.67-1.91-.33-5.83-.33-4,2.42-4,5.17,4,4.33,5.5,1.67,4.83-2.43,4.83,1c0,1.76,5.12,2.93,6.12.3.63-1.67-.45-4.14,3.46-4.32,5-.23,5,13.6,0,13.36-3.91-.18-2.82-2.65-3.46-4.32-1-2.62-6.12-1.45-6.12.3,0,3.43-3.33,3.67-4.83,1S0,129.2,0,132s0,5.17,4,5.17,4.83-2.67,5.83-.33,4.5,3.67,6.16,3.67,1.17,1.33,2.17,1.33H32V41.47h1.38s6-2,3-6C40.88,31,49.38,25.22,49.38,15Zm-7.44.69c-.21,6.68-9.3,12.86-12.78,15.19A2.6,2.6,0,0,0,28,33a2.6,2.6,0,0,0-1.15-2.16c-3.48-2.33-12.58-8.51-12.78-15.19-.05-1.77.27-5.77,3.81-6.56A9.8,9.8,0,0,1,28,12.35,9.8,9.8,0,0,1,38.13,9.1C41.67,9.89,42,13.89,41.94,15.66Z"/></g></g></svg>