<svg xmlns="http://www.w3.org/2000/svg" viewBox="0 0 39.88 144.06"><defs><style>.cls-1{fill:#323232;}.cls-2{fill:none;stroke:#323232;stroke-miterlimit:10;}</style></defs><title>Asset 6</title><g id="Layer_2" data-name="Layer 2"><g id="Layer_1-2" data-name="Layer 1"><path class="cls-1" d="M37.27,3.64a2.6,2.6,0,0,0-2.15,1.14l0-.22L22.88,1s1.08-.83,0-1a22.07,22.07,0,0,0-3,0,22.07,22.07,0,0,0-3,0c-1,.13,0,1,0,1L4.79,4.56l0,.22A2.6,2.6,0,1,0,1.63,8.65c0,.31.54,22,.33,25.07a4.47,4.47,0,0,1,3.25,5.08s7.17,1.92,10.17,2.63.54,1.46,1.76,1.58,1.87-.12.57.71,0,1.13,0,1.13h.46v3.65c-.85.11-1.42.3-1.42.52s.21.25.56.35l-.62,62L.56,114.87v3.81l10.38-1.81L6,121.38A2.18,2.18,0,1,0,6.58,124l0,.16,4.63,3.25-4.5,3.06-.15.38a2.2,2.2,0,1,0-1,2.86l5.24,4.57L.56,135.87v3.94L17,143.12l2.38.94,2.56-.94.5-93.72c.42-.11.69-.24.69-.38s-.56-.41-1.42-.52V44.85h.46s1.29-.29,0-1.12-.64-.58.57-.71-1.24-.87,1.76-1.58,10.17-2.62,10.17-2.62a4.47,4.47,0,0,1,3.25-5.08c-.21-3,.33-24.76.33-25.07a2.6,2.6,0,0,0-1-5ZM2.6,7.55a1.3,1.3,0,1,1,1.3-1.3A1.3,1.3,0,0,1,2.6,7.55ZM17.54,33.47s-1.37.17-1.5.92S7.42,35.1,7.21,33,6.46,9.89,6.46,9.89L18,9.1ZM32.67,33c-.21,2.13-8.71,2.17-8.83,1.42s-1.5-.92-1.5-.92L21.88,9.1l11.54.79S32.88,30.85,32.67,33Zm4.6-25.43a1.3,1.3,0,1,1,1.3-1.3A1.3,1.3,0,0,1,37.27,7.55Z"/><path class="cls-1" d="M16.2,63.33A1.69,1.69,0,1,0,12.86,63a2.93,2.93,0,0,0-2.39-.39A1.68,1.68,0,1,0,8.61,63.8h.21a3,3,0,0,0-.52,1.24,3,3,0,1,0,5.88,1,3,3,0,0,0-.1-1.35l.2.05A1.69,1.69,0,0,0,16.2,63.33Z"/><ellipse class="cls-2" cx="11.75" cy="62.96" rx="1.9" ry="1" transform="translate(-52.29 62.47) rotate(-78.99)"/><ellipse class="cls-2" cx="12.19" cy="59.93" rx="1.9" ry="1" transform="matrix(0.14, -0.99, 0.99, 0.14, -48.87, 63.35)"/><ellipse class="cls-2" cx="13.12" cy="53.55" rx="1.9" ry="1" transform="translate(-41.76 58.81) rotate(-81.7)"/><ellipse class="cls-2" cx="14.25" cy="47.53" rx="1.9" ry="1" transform="matrix(0.14, -0.99, 0.99, 0.14, -34.84, 54.76)"/><ellipse class="cls-2" cx="15.22" cy="40.82" rx="1.9" ry="1" transform="matrix(0.14, -0.99, 0.99, 0.14, -27.36, 49.99)"/><ellipse class="cls-2" cx="16.02" cy="33.12" rx="1.9" ry="1" transform="translate(-17.62 48.04) rotate(-88.11)"/><ellipse class="cls-2" cx="16.3" cy="26.42" rx="1.9" ry="1" transform="translate(-10.64 41.84) rotate(-88.11)"/><ellipse class="cls-2" cx="16.71" cy="19.42" rx="1.9" ry="1" transform="translate(-3.25 35.48) rotate(-88.11)"/><ellipse class="cls-2" cx="17.3" cy="12.7" rx="1.9" ry="1" transform="translate(4.04 29.57) rotate(-88.11)"/><line class="cls-2" x1="13.12" y1="54.09" x2="12.19" y2="59.46"/><line class="cls-2" x1="14.25" y1="48.06" x2="13.12" y2="52.74"/><line class="cls-2" x1="15.03" y1="41.81" x2="14.38" y2="46.74"/><line class="cls-2" x1="16.3" y1="27.12" x2="16.02" y2="32.43"/><line class="cls-2" x1="16.71" y1="19.99" x2="16.3" y2="25.65"/><line class="cls-2" x1="17.3" y1="13.15" x2="16.71" y2="18.81"/><line class="cls-2" x1="17.81" y1="7.71" x2="17.3" y2="11.71"/></g></g></svg>