<svg xmlns="http://www.w3.org/2000/svg" viewBox="0 0 140.27 113.56"><defs><style>.cls-1,.cls-2{fill:#fff;}.cls-1{stroke:#fff;stroke-miterlimit:10;}</style></defs><title>Asset 5</title><g id="Layer_2" data-name="Layer 2"><g id="Layer_1-2" data-name="Layer 1"><path class="cls-1" d="M67.71,32.06h0V90.9H63.91V88.06h-13V90.9h4v2.83H61v7.58H54.91v2.83h-4V107h13v-2.83h3.77v8.92h5.17v-81a3.36,3.36,0,0,1,2.54-3.38,10,10,0,1,0,1.18-18.25,7,7,0,1,0-12.59,0,10,10,0,1,0,1.2,18.24A3.36,3.36,0,0,1,67.71,32.06Zm5-12.44a7.3,7.3,0,1,1,7.3,7.3A7.3,7.3,0,0,1,72.66,19.62Zm-4.77,7a10,10,0,0,0,2.36-4.48,10,10,0,0,0,2.37,4.5c-1.67,1.33-2.09,4.71-2.16,5.47h-.38C70,31.3,69.59,27.89,67.9,26.57ZM66.4,7.47a3.85,3.85,0,1,1,3.85,3.85A3.85,3.85,0,0,1,66.4,7.47Zm1.2,12.15a7.3,7.3,0,1,1-7.3-7.3A7.3,7.3,0,0,1,67.6,19.62Z"/><path class="cls-2" d="M70.26,57.14S69.9,61,74.68,62s4.15,1.92,6.55,3.22a76.2,76.2,0,0,1,14.47,9.85c5.73,5.12,13.59-1.22,15.52-2.06s19.59-14.36,25.07-21.33,3.86-11.81,3.39-13.74-5.78-7.58-13.12-7S96,37.91,85.13,44.64,70.26,57.14,70.26,57.14Zm47.57-22,9.54,1.49-14.61,3.24L102,45.26l3.13-5.73ZM94.14,51.87,99.45,48l12.58.78L114.4,51l-3.65,4.23-6.46-.25-9.83-2Zm12.13,5.71,3.52,2.34-2.6,3.8-12-1.65L82.45,57.43,82,55.54l1.25-1.39,8.22.45Zm6.25-11.26-7.89.46,10.7-6.06,15.55-2.54,2.61,2.8-9.61,2.72Zm21.19-7L130.29,36l-9.52-2.65L132,33.21l5,3.89,2,5.18-1.72,4.12Zm.09,11.29-5.21-6.06,2.31-1,2.12-.17L135.89,48Zm-10.51-2.85L123.2,46l3.52-.34,5.43,6.65-.09.47-.81,1.18Zm3.51,8.71L115.28,49.6l-1.34-2,.72-.72,2.32.29,6,2.24,6.48,5.72Zm-4,3.05-9.88-3.86,1-2.19,1.51-.89,3.25,1.4,6.51,4.13Zm-3.45,3.58L111,59.42l-1.44-2.17.8-.24,3.35,1.07L121,61.43l-.46.5ZM111.74,68l-3-4.65,2.38-1.47,6.4,2.7-2.52,2Zm-18,.61,2.42-4,7.36.43,4.46.89,2.27,3.23-4.48,2.43-4.08,1-3-.6ZM80.38,59.1l3.22.64L93.7,64.3l-2.36,3.27-9.79-5.7Zm1.36-8.42,8.06-5.74,12.72-4.6-2.75,4.41-8.06,5.74S83,52.93,81.36,52.59,81.75,50.68,81.75,50.68Z"/><path class="cls-2" d="M55.14,44.64C44.26,37.91,21,31.57,13.71,31S1.06,36,.59,37.95-1.5,44.71,4,51.68,27.12,72.17,29,73s9.79,7.18,15.52,2.06A76.2,76.2,0,0,1,59,65.23C61.44,63.92,60.82,63,65.59,62S70,57.14,70,57.14,66,51.37,55.14,44.64Zm-20-5.11,3.13,5.73L27.51,39.91,12.91,36.68l9.54-1.49ZM45.82,53l-9.83,2-6.46.25L25.88,51l2.36-2.21L40.82,48l5.31,3.9Zm3,1.63,8.22-.45,1.25,1.39-.49,1.89L45,62.07l-12,1.65-2.6-3.8L34,57.58ZM16.4,43.7,6.79,41l2.61-2.8,15.55,2.54,10.7,6.06-7.89-.46ZM2.91,46.41,1.19,42.28l2-5.18,5-3.89,11.25.13L10,36,6.56,39.29ZM4.38,48l2.88-4.65,2.12.17,2.31,1L6.48,50.58ZM9,53.94l-.81-1.18-.09-.47,5.43-6.65,3.52.34L17,47.73Zm1.83,1.22,6.48-5.72,6-2.24,2.32-.29.72.72L25,49.6,13.48,56.45Zm4.26,2.92L21.62,54l3.25-1.4,1.51.89,1,2.19L17.47,59.5Zm4.58,3.85-.46-.5,7.32-3.35L29.89,57l.8.24-1.44,2.17-8.34,3.66Zm5.61,4.64-2.52-2,6.4-2.7,2.38,1.47-3,4.65ZM41.64,72l-3,.6-4.08-1-4.48-2.43L32.33,66l4.46-.89,7.36-.43,2.42,4ZM58.72,61.87l-9.79,5.7L46.57,64.3l10.1-4.55,3.22-.64Zm.19-9.28c-1.66.33-10.35-2.1-10.35-2.1L40.5,44.76l-2.75-4.41,12.72,4.6,8.06,5.74S60.57,52.26,58.91,52.59Z"/></g></g></svg>