<svg xmlns="http://www.w3.org/2000/svg" viewBox="0 0 68.64 118.17"><defs><style>.cls-1{fill:#323232;}</style></defs><title>Asset 7</title><g id="Layer_2" data-name="Layer 2"><g id="Layer_1-2" data-name="Layer 1"><path class="cls-1" d="M31.93,61a32.44,32.44,0,0,0-3.26,0L25.88,47.26C32.56,41,37.4,35,38.1,27.67,39.1,17,39.76,11.33,29.76,0c-5.89,6-12.67,20-8,38C21.76,38,1.29,57.46.1,69.06-1.15,81.17,9.85,97.42,32.93,94.17c1.15,8.94,7.71,21.37-12.65,21.91a8.9,8.9,0,0,0,4.4-8c0-4.81-3.21-8.71-7.17-8.71s-7.24,3.9-7.17,8.71c.17,10.29,11,10.94,15.85,9.63,10.63-2.9,13.54-3,8.83-24,8.58-3.25,10.4-8.78,11.23-15S44.1,61.58,31.93,61ZM29.26,10.79c8.13-2.75,6,10.5,6,10.5A33,33,0,0,1,24,35.79S21.14,13.54,29.26,10.79ZM16.1,55.95C19,53.42,21.75,51,24.31,48.71l2.44,12.47c-6.38.82-10,4-11.32,8.82a11.14,11.14,0,0,0,6,13.33s-8.67-11.22,5.33-14.28c.51-.11,1-.2,1.47-.28l3.61,22.14C3.76,91.41,4.76,65.9,16.1,55.95Zm18,34.34L30.2,68.55C40.93,66.42,45.43,86,34.07,90.29Z"/><path class="cls-1" d="M67.35,32.62l-3.4.85v-11l4.69-1.18-1.29-5.15-3.4.85V7.29H61.89V17.5l-5.25,1.32V9H54.57V19.33l-3.78.95,1.29,5.15,2.48-.62v11l-3.78.95,1.29,5.15,2.48-.62V50.6h2.06V40.79l5.25-1.32v9.44h2.06V39l4.69-1.18ZM56.64,35.31v-11L61.89,23V34Z"/></g></g></svg>